<svg width="182" height="144" viewBox="0 0 182 144" fill="none" xmlns="http://www.w3.org/2000/svg">
<circle cx="92.6701" cy="71.9807" r="71.3859" fill="#F2F8EF"/>
<mask id="mask0_133_7813" style="mask-type:alpha" maskUnits="userSpaceOnUse" x="21" y="0" width="144" height="144">
<circle cx="92.6701" cy="71.9807" r="71.3859" fill="#F2F8EF"/>
</mask>
<g mask="url(#mask0_133_7813)">
<rect x="37.4199" width="104" height="83" rx="5" fill="white"/>
<circle cx="89.4199" cy="25" r="13" fill="#F7FAFA"/>
<path d="M89.42 27.8977C89.9076 27.8977 90.3029 27.5024 90.3029 27.0148C90.3029 26.5271 89.9076 26.1318 89.42 26.1318C88.9324 26.1318 88.5371 26.5271 88.5371 27.0148C88.5371 27.5024 88.9324 27.8977 89.42 27.8977Z" fill="#F86A53"/>
<path d="M92.8213 23.6618V22.9847C92.8213 21.5222 92.4692 19.583 89.4196 19.583C86.37 19.583 86.0179 21.5222 86.0179 22.9847V23.6618C84.5013 23.8513 84.0029 24.6205 84.0029 26.5109V27.5184C84.0029 29.7393 84.68 30.4163 86.9008 30.4163H91.9383C94.1592 30.4163 94.8363 29.7393 94.8363 27.5184V26.5109C94.8363 24.6205 94.3379 23.8513 92.8213 23.6618ZM89.4196 28.6505C88.515 28.6505 87.7838 27.9138 87.7838 27.0147C87.7838 26.1101 88.5204 25.3788 89.4196 25.3788C90.3188 25.3788 91.0554 26.1155 91.0554 27.0147C91.0554 27.9193 90.3242 28.6505 89.4196 28.6505ZM86.9008 23.613C86.8575 23.613 86.8196 23.613 86.7763 23.613V22.9847C86.7763 21.3976 87.2258 20.3413 89.4196 20.3413C91.6133 20.3413 92.0629 21.3976 92.0629 22.9847V23.6184C92.0196 23.6184 91.9817 23.6184 91.9383 23.6184H86.9008V23.613Z" fill="#F86A53"/>
<rect x="49.4199" y="50" width="80" height="8" rx="4" fill="#E4F2F1"/>
<rect x="58.0361" y="63" width="62.8571" height="8" rx="4" fill="#E4F2F1"/>
<rect x="37.4199" y="91.6123" width="104" height="26" rx="5" fill="white"/>
<circle cx="51.4199" cy="104.612" r="8.00001" fill="#F9FBFB"/>
<path d="M53.0869 101.779H49.7536C48.7536 101.779 48.0869 102.279 48.0869 103.446V105.779C48.0869 106.946 48.7536 107.446 49.7536 107.446H53.0869C54.0869 107.446 54.7536 106.946 54.7536 105.779V103.446C54.7536 102.279 54.0869 101.779 53.0869 101.779ZM53.2436 103.809L52.2003 104.643C51.9803 104.819 51.7003 104.906 51.4202 104.906C51.1402 104.906 50.8569 104.819 50.6402 104.643L49.5969 103.809C49.4902 103.723 49.4736 103.563 49.5569 103.456C49.6436 103.349 49.8002 103.329 49.9069 103.416L50.9502 104.249C51.2036 104.453 51.6336 104.453 51.8869 104.249L52.9303 103.416C53.0369 103.329 53.1969 103.346 53.2803 103.456C53.3669 103.563 53.3503 103.723 53.2436 103.809Z" fill="#F86A53"/>
<rect x="64.4199" y="100.612" width="71" height="8" rx="4" fill="#E4F2F1"/>
<rect x="37.4199" y="122.844" width="104" height="26" rx="5" fill="white"/>
<circle cx="51.4199" cy="135.844" r="8.00001" fill="#F9FBFB"/>
<path d="M53.0869 133.011H49.7536C48.7536 133.011 48.0869 133.511 48.0869 134.677V137.011C48.0869 138.177 48.7536 138.677 49.7536 138.677H53.0869C54.0869 138.677 54.7536 138.177 54.7536 137.011V134.677C54.7536 133.511 54.0869 133.011 53.0869 133.011ZM53.2436 135.041L52.2003 135.874C51.9803 136.051 51.7003 136.137 51.4202 136.137C51.1402 136.137 50.8569 136.051 50.6402 135.874L49.5969 135.041C49.4902 134.954 49.4736 134.794 49.5569 134.687C49.6436 134.581 49.8002 134.561 49.9069 134.647L50.9502 135.481C51.2036 135.684 51.6336 135.684 51.8869 135.481L52.9303 134.647C53.0369 134.561 53.1969 134.577 53.2803 134.687C53.3669 134.794 53.3503 134.954 53.2436 135.041Z" fill="#F86A53"/>
<rect x="64.4199" y="131.844" width="71" height="8" rx="4" fill="#F2F8EF"/>
</g>
<g clip-path="url(#clip0_133_7813)">
<rect x="37.4199" width="104" height="83" rx="5" fill="white"/>
<circle cx="89.4199" cy="25" r="13" fill="#F7FAFA"/>
<path d="M89.42 27.8977C89.9076 27.8977 90.3029 27.5024 90.3029 27.0148C90.3029 26.5271 89.9076 26.1318 89.42 26.1318C88.9324 26.1318 88.5371 26.5271 88.5371 27.0148C88.5371 27.5024 88.9324 27.8977 89.42 27.8977Z" fill="#191919"/>
<path d="M92.8213 23.6618V22.9847C92.8213 21.5222 92.4692 19.583 89.4196 19.583C86.37 19.583 86.0179 21.5222 86.0179 22.9847V23.6618C84.5013 23.8513 84.0029 24.6205 84.0029 26.5109V27.5184C84.0029 29.7393 84.68 30.4163 86.9008 30.4163H91.9383C94.1592 30.4163 94.8363 29.7393 94.8363 27.5184V26.5109C94.8363 24.6205 94.3379 23.8513 92.8213 23.6618ZM89.4196 28.6505C88.515 28.6505 87.7838 27.9138 87.7838 27.0147C87.7838 26.1101 88.5204 25.3788 89.4196 25.3788C90.3188 25.3788 91.0554 26.1155 91.0554 27.0147C91.0554 27.9193 90.3242 28.6505 89.4196 28.6505ZM86.9008 23.613C86.8575 23.613 86.8196 23.613 86.7763 23.613V22.9847C86.7763 21.3976 87.2258 20.3413 89.4196 20.3413C91.6133 20.3413 92.0629 21.3976 92.0629 22.9847V23.6184C92.0196 23.6184 91.9817 23.6184 91.9383 23.6184H86.9008V23.613Z" fill="#191919"/>
<rect x="49.4199" y="50" width="80" height="8" rx="4" fill="#F2F8EF"/>
<rect x="58.0361" y="63" width="62.8571" height="8" rx="4" fill="#F2F8EF"/>
<rect x="37.4199" y="88" width="104" height="26" rx="5" fill="white"/>
<circle cx="51.4199" cy="101" r="8.00001" fill="#F9FBFB"/>
<path d="M53.0869 98.167H49.7536C48.7536 98.167 48.0869 98.667 48.0869 99.8337V102.167C48.0869 103.334 48.7536 103.834 49.7536 103.834H53.0869C54.0869 103.834 54.7536 103.334 54.7536 102.167V99.8337C54.7536 98.667 54.0869 98.167 53.0869 98.167ZM53.2436 100.197L52.2003 101.03C51.9803 101.207 51.7003 101.294 51.4202 101.294C51.1402 101.294 50.8569 101.207 50.6402 101.03L49.5969 100.197C49.4902 100.11 49.4736 99.9503 49.5569 99.8437C49.6436 99.737 49.8002 99.717 49.9069 99.8037L50.9502 100.637C51.2036 100.84 51.6336 100.84 51.8869 100.637L52.9303 99.8037C53.0369 99.717 53.1969 99.7337 53.2803 99.8437C53.3669 99.9503 53.3503 100.11 53.2436 100.197Z" fill="#191919"/>
<rect x="64.4199" y="97" width="71" height="8" rx="4" fill="#F2F8EF"/>
</g>
<g filter="url(#filter0_d_133_7813)">
<rect x="18.5" y="37" width="54" height="25" rx="4" fill="url(#paint0_linear_133_7813)" shape-rendering="crispEdges"/>
<path d="M28.8896 53L27.3727 51.8663L28.9727 49.6417L26.5 48.7861L27.0818 46.9465L29.5545 47.8021V45H31.4455V47.8021L33.9182 46.9465L34.5 48.7861L32.0273 49.6417L33.6481 51.8663L32.1312 53L30.5104 50.7754L28.8896 53Z" fill="white"/>
<path d="M42.8896 53L41.3727 51.8663L42.9727 49.6417L40.5 48.7861L41.0818 46.9465L43.5545 47.8021V45H45.4455V47.8021L47.9182 46.9465L48.5 48.7861L46.0273 49.6417L47.6481 51.8663L46.1312 53L44.5104 50.7754L42.8896 53Z" fill="white"/>
<path d="M56.8896 53L55.3727 51.8663L56.9727 49.6417L54.5 48.7861L55.0818 46.9465L57.5545 47.8021V45H59.4455V47.8021L61.9182 46.9465L62.5 48.7861L60.0273 49.6417L61.6481 51.8663L60.1312 53L58.5104 50.7754L56.8896 53Z" fill="white"/>
</g>
<path d="M37.4917 141C27.3638 139.759 21.9502 132.609 23.8901 123C33.1157 124.376 38.0556 130.895 37.4917 141Z" fill="#F2F8EF"/>
<path d="M180.992 49.6836C170.864 48.443 165.45 41.2926 167.39 31.6836C176.616 33.0595 181.556 39.5783 180.992 49.6836Z" fill="#F2F8EF"/>
<path d="M30.4917 25C20.3638 23.7594 14.9502 16.609 16.8901 7C26.1157 8.37594 31.0556 14.8947 30.4917 25Z" fill="#F2F8EF"/>
<defs>
<filter id="filter0_d_133_7813" x="0.499998" y="22" width="94" height="65" filterUnits="userSpaceOnUse" color-interpolation-filters="sRGB">
<feFlood flood-opacity="0" result="BackgroundImageFix"/>
<feColorMatrix in="SourceAlpha" type="matrix" values="0 0 0 0 0 0 0 0 0 0 0 0 0 0 0 0 0 0 127 0" result="hardAlpha"/>
<feOffset dx="2" dy="5"/>
<feGaussianBlur stdDeviation="10"/>
<feComposite in2="hardAlpha" operator="out"/>
<feColorMatrix type="matrix" values="0 0 0 0 0 0 0 0 0 0.36 0 0 0 0 0.3264 0 0 0 0.13 0"/>
<feBlend mode="normal" in2="BackgroundImageFix" result="effect1_dropShadow_133_7813"/>
<feBlend mode="normal" in="SourceGraphic" in2="effect1_dropShadow_133_7813" result="shape"/>
</filter>
<linearGradient id="paint0_linear_133_7813" x1="45.4614" y1="62" x2="45.5437" y2="36.9987" gradientUnits="userSpaceOnUse">
<stop stop-color="#22baed"/>
<stop offset="1" stop-color="#88CB60"/>
</linearGradient>
<clipPath id="clip0_133_7813">
<rect width="108.269" height="115.556" fill="white" transform="translate(37.4199)"/>
</clipPath>
</defs>
</svg>
