<svg width="218" height="218" viewBox="0 0 218 218" fill="none" xmlns="http://www.w3.org/2000/svg">
<path d="M217.093 205.524C222.351 195.118 207.324 143.092 103.13 143.092C27.9239 143.092 -6.59387 185.677 1.03732 207.258" fill="url(#paint0_radial_1238_15781)"/>
<mask id="mask0_1238_15781" style="mask-type:luminance" maskUnits="userSpaceOnUse" x="0" y="143" width="218" height="65">
<path d="M217.093 205.524C222.351 195.118 207.324 143.092 103.13 143.092C27.9239 143.092 -6.59387 185.677 1.03732 207.258" fill="white"/>
</mask>
<g mask="url(#mask0_1238_15781)">
<ellipse opacity="0.671968" cx="87.0602" cy="189.036" rx="5.73014" ry="3.18281" fill="url(#paint1_linear_1238_15781)"/>
<ellipse opacity="0.256348" cx="145.547" cy="167.409" rx="9.04089" ry="4.96518" fill="url(#paint2_linear_1238_15781)"/>
<ellipse opacity="0.729957" cx="42.6581" cy="154.168" rx="9.04089" ry="4.96518" fill="url(#paint3_linear_1238_15781)"/>
</g>
<path opacity="0.5" d="M84.9375 154.63C84.9375 154.63 107.109 165.056 115.905 169.057C122.872 172.226 158.746 182.364 163.02 179.482C167.294 176.601 176.73 168.691 173.614 163.273C170.499 157.854 154.116 148.124 146.281 146.703C138.445 145.281 116.041 151.743 116.041 151.743L96.9314 155.025L84.9375 154.63Z" fill="url(#paint4_linear_1238_15781)"/>
<path d="M101.37 108.016L76.6636 126.183L83.2513 110.727L107.994 95.0193L101.37 108.016Z" fill="#E2E7EC"/>
<path d="M82.8418 111.047L107.996 95.2998V138.245L84.938 154.411L82.8418 111.047Z" fill="#D8DFE6"/>
<path d="M107.994 95.2998L146.563 104.323V147.284L107.994 138.261V95.2998Z" fill="#E9EFF1"/>
<path d="M82.8418 111.044L122.249 120.254V163.215L84.938 154.647L82.8418 111.044Z" fill="#E8EAEB"/>
<path d="M121.41 120.27L146.564 104.523V147.469L121.41 163.215V120.27Z" fill="#D8DFE6"/>
<mask id="mask1_1238_15781" style="mask-type:luminance" maskUnits="userSpaceOnUse" x="121" y="104" width="26" height="60">
<path d="M121.41 120.27L146.564 104.523V147.469L121.41 163.215V120.27Z" fill="white"/>
</mask>
<g mask="url(#mask1_1238_15781)">
<rect x="130.754" y="100.944" width="7.90549" height="65.8499" fill="#C7D0D9"/>
</g>
<path d="M132.721 133.031L157.464 117.323L146.153 104.523L121.41 120.231L132.721 133.031Z" fill="#E2E7EC"/>
<path fill-rule="evenodd" clip-rule="evenodd" d="M140.694 64.0973C139.811 64.3674 121.52 75.3112 121.52 75.3112L126.857 75.7092L130.651 79.9012C130.651 79.9012 141.578 63.8272 140.694 64.0973Z" fill="#E8EAEB"/>
<mask id="mask2_1238_15781" style="mask-type:luminance" maskUnits="userSpaceOnUse" x="121" y="64" width="20" height="16">
<path fill-rule="evenodd" clip-rule="evenodd" d="M140.694 64.0973C139.811 64.3674 121.52 75.3112 121.52 75.3112L126.857 75.7092L130.651 79.9012C130.651 79.9012 141.578 63.8272 140.694 64.0973Z" fill="white"/>
</mask>
<g mask="url(#mask2_1238_15781)">
<path fill-rule="evenodd" clip-rule="evenodd" d="M126.857 75.7091L140.694 64.0972L130.65 79.9011L126.857 75.7091Z" fill="#D8DFE6"/>
</g>
<path fill-rule="evenodd" clip-rule="evenodd" d="M137.947 76.7785L131.533 76.1081L140.701 64.2102L137.947 76.7785Z" fill="#E8EAEB"/>
<path fill-rule="evenodd" clip-rule="evenodd" d="M126.138 84.7053C126.539 83.8572 126.942 82.9794 127.348 82.0718L128.012 82.3687C127.603 83.2807 127.198 84.1631 126.795 85.0157L126.138 84.7053ZM123.528 89.8792C123.971 89.0621 124.417 88.2063 124.867 87.3117L125.516 87.6383C125.063 88.5394 124.613 89.4017 124.167 90.2254L123.528 89.8792ZM122.103 92.3963C121.587 93.2667 121.076 94.0824 120.57 94.8435L121.175 95.2458C121.688 94.4741 122.206 93.6479 122.728 92.767L122.103 92.3963ZM117.025 99.3706C117.638 98.7349 118.26 98.0094 118.891 97.1941L119.465 97.6389C118.819 98.4742 118.18 99.2195 117.548 99.8749L117.025 99.3706ZM114.89 101.248C114.041 101.857 113.214 102.278 112.409 102.513L112.613 103.211C113.501 102.951 114.401 102.493 115.314 101.839L114.89 101.248ZM107.285 101.325C108.084 101.969 108.896 102.391 109.723 102.595L109.549 103.3C108.614 103.07 107.707 102.599 106.829 101.891L107.285 101.325ZM105.326 99.2609C105.281 99.202 105.236 99.1423 105.191 99.0818C104.606 98.2945 104.182 97.5472 103.911 96.8414L103.232 97.1018C103.528 97.8729 103.986 98.6772 104.608 99.5152C104.655 99.5783 104.702 99.6405 104.749 99.702L105.326 99.2609ZM105.152 91.9511C104.367 92.5994 103.862 93.3436 103.656 94.1738L102.951 93.9989C103.197 93.0083 103.79 92.1334 104.689 91.3908L105.152 91.9511ZM107.58 90.5856C108.397 90.2663 109.317 90.0059 110.314 89.8094L110.173 89.0965C109.136 89.301 108.175 89.5731 107.315 89.9088L107.58 90.5856ZM116.003 89.3937C115.036 89.3593 114.073 89.3752 113.134 89.4413L113.083 88.7164C114.047 88.6486 115.036 88.6322 116.029 88.6675L116.003 89.3937ZM118.895 89.6484C119.869 89.7871 120.812 89.977 121.702 90.2151L121.889 89.5132C120.971 89.2674 120 89.0717 118.998 88.929L118.895 89.6484ZM126.813 92.6099C126.149 92.0692 125.338 91.5837 124.402 91.1619L124.701 90.4994C125.691 90.9459 126.556 91.4635 127.272 92.0463L126.813 92.6099ZM128.545 94.7926C128.72 95.1999 128.832 95.6242 128.88 96.0655C128.93 96.5324 128.947 97.0017 128.932 97.4735L129.658 97.4972C129.674 96.9917 129.656 96.4886 129.602 95.9881C129.547 95.474 129.416 94.979 129.212 94.5053L128.545 94.7926ZM127.381 102.888C127.849 102.006 128.211 101.133 128.467 100.269L129.164 100.476C128.893 101.387 128.513 102.304 128.023 103.228L127.381 102.888ZM125.842 105.317C125.305 106.049 124.697 106.787 124.019 107.531L124.556 108.021C125.251 107.258 125.875 106.501 126.428 105.747L125.842 105.317ZM119.846 111.463C120.617 110.824 121.34 110.19 122.013 109.559L122.51 110.089C121.826 110.73 121.092 111.375 120.31 112.023L119.846 111.463ZM117.556 113.262C116.809 113.821 116.025 114.383 115.205 114.947L115.617 115.546C116.445 114.976 117.237 114.409 117.991 113.844L117.556 113.262ZM111.255 117.512C111.772 117.194 112.277 116.878 112.77 116.561L113.162 117.173C112.665 117.492 112.156 117.811 111.636 118.131L111.255 117.512Z" fill="#C7D0D9"/>
<defs>
<radialGradient id="paint0_radial_1238_15781" cx="0" cy="0" r="1" gradientUnits="userSpaceOnUse" gradientTransform="translate(94.5473 165.345) rotate(-90) scale(37.3073 389.637)">
<stop stop-color="#EBEDF0" stop-opacity="0.24"/>
<stop offset="0.536775" stop-color="#EBEDF0" stop-opacity="0.845525"/>
<stop offset="1" stop-color="#E0E4E7" stop-opacity="0.01"/>
</radialGradient>
<linearGradient id="paint1_linear_1238_15781" x1="82.448" y1="188.193" x2="84.1937" y2="191.926" gradientUnits="userSpaceOnUse">
<stop stop-color="#E1E7EA"/>
<stop offset="1" stop-color="#D0D6DC"/>
</linearGradient>
<linearGradient id="paint2_linear_1238_15781" x1="137.955" y1="166.945" x2="141.15" y2="173.608" gradientUnits="userSpaceOnUse">
<stop stop-color="#E1E7EA"/>
<stop offset="1" stop-color="#D0D6DC"/>
</linearGradient>
<linearGradient id="paint3_linear_1238_15781" x1="36.8934" y1="154.249" x2="38.7009" y2="161.45" gradientUnits="userSpaceOnUse">
<stop stop-color="#FBFBFB"/>
<stop offset="1" stop-color="#D9DFE3"/>
</linearGradient>
<linearGradient id="paint4_linear_1238_15781" x1="81.6796" y1="158.245" x2="88.1291" y2="187.168" gradientUnits="userSpaceOnUse">
<stop stop-color="#C4CDD1"/>
<stop offset="1" stop-color="#C6CFD3" stop-opacity="0.01"/>
</linearGradient>
</defs>
</svg>
