<svg width="166" height="191" viewBox="0 0 166 191" fill="none" xmlns="http://www.w3.org/2000/svg">
<g clip-path="url(#clip0_135_8430)">
<circle cx="81.1174" cy="118.385" r="71.385" fill="#F2F8EF"/>
<rect x="52.7324" y="144" width="56.7676" height="26.6371" rx="13.3185" fill="white"/>
<rect x="61.9961" y="154.807" width="4.80341" height="4.80341" rx="2.40171" fill="url(#paint0_linear_135_8430)"/>
<rect x="70.7285" y="154.807" width="4.80341" height="4.80341" rx="2.40171" fill="url(#paint1_linear_135_8430)"/>
<rect x="79.4629" y="154.807" width="4.80341" height="4.80341" rx="2.40171" fill="url(#paint2_linear_135_8430)"/>
<rect x="88.1953" y="154.807" width="4.80341" height="4.80341" rx="2.40171" fill="url(#paint3_linear_135_8430)"/>
<rect x="96.9297" y="154.807" width="4.80341" height="4.80341" rx="2.40171" fill="url(#paint4_linear_135_8430)"/>
</g>
<path d="M21.7241 191C11.5963 189.759 6.18265 182.609 8.12251 173C17.3481 174.376 22.288 180.895 21.7241 191Z" fill="#F2F8EF"/>
<path d="M165.224 99.6836C155.096 98.443 149.683 91.2926 151.623 81.6836C160.848 83.0595 165.788 89.5783 165.224 99.6836Z" fill="#F2F8EF"/>
<path d="M14.7241 75C4.59626 73.7594 -0.817348 66.609 1.12251 57C10.3481 58.3759 15.288 64.8947 14.7241 75Z" fill="#F2F8EF"/>
<rect x="29.6523" y="37" width="104" height="88" rx="5" fill="white"/>
<circle opacity="0.3" cx="81.6523" cy="64.5" r="16.5" stroke="url(#paint5_linear_135_8430)" stroke-width="2"/>
<g filter="url(#filter0_d_135_8430)">
<circle cx="81.6523" cy="64.5" r="12.5" fill="#191919"/>
</g>
<path d="M75.9863 65.5622L79.1738 68.7497L86.9655 60.958" stroke="#FAFFEF" stroke-width="2" stroke-linecap="round" stroke-linejoin="round"/>
<rect x="41.6523" y="92" width="80" height="8" rx="4" fill="#F2F8EF"/>
<rect x="50.2695" y="105" width="62.8571" height="8" rx="4" fill="#F2F8EF"/>
<defs>
<filter id="filter0_d_135_8430" x="12.7007" y="0.0645146" width="137.903" height="137.903" filterUnits="userSpaceOnUse" color-interpolation-filters="sRGB">
<feFlood flood-opacity="0" result="BackgroundImageFix"/>
<feColorMatrix in="SourceAlpha" type="matrix" values="0 0 0 0 0 0 0 0 0 0 0 0 0 0 0 0 0 0 127 0" result="hardAlpha"/>
<feOffset dy="4.51613"/>
<feGaussianBlur stdDeviation="28.2258"/>
<feComposite in2="hardAlpha" operator="out"/>
<feColorMatrix type="matrix" values="0 0 0 0 0 0 0 0 0 0 0 0 0 0 0 0 0 0 0.2 0"/>
<feBlend mode="normal" in2="BackgroundImageFix" result="effect1_dropShadow_135_8430"/>
<feBlend mode="normal" in="SourceGraphic" in2="effect1_dropShadow_135_8430" result="shape"/>
</filter>
<linearGradient id="paint0_linear_135_8430" x1="64.3944" y1="159.61" x2="64.4285" y2="154.807" gradientUnits="userSpaceOnUse">
<stop stop-color="#22baed"/>
<stop offset="1" stop-color="#88CB60"/>
</linearGradient>
<linearGradient id="paint1_linear_135_8430" x1="73.1268" y1="159.61" x2="73.1609" y2="154.807" gradientUnits="userSpaceOnUse">
<stop stop-color="#22baed"/>
<stop offset="1" stop-color="#88CB60"/>
</linearGradient>
<linearGradient id="paint2_linear_135_8430" x1="81.8612" y1="159.61" x2="81.8953" y2="154.807" gradientUnits="userSpaceOnUse">
<stop stop-color="#22baed"/>
<stop offset="1" stop-color="#88CB60"/>
</linearGradient>
<linearGradient id="paint3_linear_135_8430" x1="90.5936" y1="159.61" x2="90.6277" y2="154.807" gradientUnits="userSpaceOnUse">
<stop stop-color="#22baed"/>
<stop offset="1" stop-color="#88CB60"/>
</linearGradient>
<linearGradient id="paint4_linear_135_8430" x1="99.328" y1="159.61" x2="99.3621" y2="154.807" gradientUnits="userSpaceOnUse">
<stop stop-color="#22baed"/>
<stop offset="1" stop-color="#88CB60"/>
</linearGradient>
<linearGradient id="paint5_linear_135_8430" x1="81.6523" y1="49" x2="81.6523" y2="80" gradientUnits="userSpaceOnUse">
<stop stop-color="#5F8A7E"/>
<stop offset="1" stop-color="#5F8A7E" stop-opacity="0"/>
</linearGradient>
<clipPath id="clip0_135_8430">
<rect x="9.73242" y="47" width="143" height="143" rx="71.5" fill="white"/>
</clipPath>
</defs>
</svg>
