<svg width="20" height="20" viewBox="0 0 20 20" fill="none" xmlns="http://www.w3.org/2000/svg">
<path d="M12.5001 18.9583H7.50008C2.97508 18.9583 1.04175 17.025 1.04175 12.5V7.49999C1.04175 2.97499 2.97508 1.04166 7.50008 1.04166H12.5001C17.0251 1.04166 18.9584 2.97499 18.9584 7.49999V12.5C18.9584 17.025 17.0251 18.9583 12.5001 18.9583ZM7.50008 2.29166C3.65841 2.29166 2.29175 3.65832 2.29175 7.49999V12.5C2.29175 16.3417 3.65841 17.7083 7.50008 17.7083H12.5001C16.3417 17.7083 17.7084 16.3417 17.7084 12.5V7.49999C17.7084 3.65832 16.3417 2.29166 12.5001 2.29166H7.50008Z" fill="currentColor"/>
<path d="M12.9167 16.0417C11.65 16.0417 10.625 15.0167 10.625 13.75V6.25001C10.625 4.98334 11.65 3.95834 12.9167 3.95834C14.1833 3.95834 15.2083 4.98334 15.2083 6.25001V13.75C15.2083 15.0167 14.1833 16.0417 12.9167 16.0417ZM12.9167 5.20834C12.3417 5.20834 11.875 5.67501 11.875 6.25001V13.75C11.875 14.325 12.3417 14.7917 12.9167 14.7917C13.4917 14.7917 13.9583 14.325 13.9583 13.75V6.25001C13.9583 5.67501 13.4917 5.20834 12.9167 5.20834Z" fill="currentColor"/>
<path d="M7.08341 16.0417C5.81675 16.0417 4.79175 15.0167 4.79175 13.75V10.8333C4.79175 9.56666 5.81675 8.54166 7.08341 8.54166C8.35008 8.54166 9.37508 9.56666 9.37508 10.8333V13.75C9.37508 15.0167 8.35008 16.0417 7.08341 16.0417ZM7.08341 9.79166C6.50841 9.79166 6.04175 10.2583 6.04175 10.8333V13.75C6.04175 14.325 6.50841 14.7917 7.08341 14.7917C7.65841 14.7917 8.12508 14.325 8.12508 13.75V10.8333C8.12508 10.2583 7.65841 9.79166 7.08341 9.79166Z" fill="currentColor"/>
</svg>
