<svg width="21" height="21" viewBox="0 0 21 21" fill="none" xmlns="http://www.w3.org/2000/svg">
<path d="M10.1667 0.5C4.65258 0.5 0.166748 4.98583 0.166748 10.5C0.166748 16.0142 4.65258 20.5 10.1667 20.5C15.6809 20.5 20.1667 16.0142 20.1667 10.5C20.1667 4.98583 15.6809 0.5 10.1667 0.5ZM15.3334 9.26L11.6451 12.8808C10.9926 13.5208 10.1526 13.84 9.31175 13.84C8.48008 13.84 7.64841 13.5267 6.99841 12.8992L5.41591 11.3433C5.08758 11.0208 5.08341 10.4933 5.40591 10.165C5.72758 9.83583 6.25675 9.83167 6.58425 10.155L8.16175 11.7058C8.80841 12.3308 9.82925 12.3275 10.4792 11.6908L14.1667 8.07083C14.4942 7.7475 15.0201 7.75333 15.3451 8.08167C15.6676 8.41 15.6626 8.9375 15.3334 9.26Z" fill="currentColor"/>
</svg>
