<svg width="18" height="19" viewBox="0 0 18 19" fill="none" xmlns="http://www.w3.org/2000/svg">
<path d="M13.9725 5.86261C14.0025 6.32011 13.965 6.83761 13.875 7.41511L13.3275 10.9326C12.8625 13.8651 11.505 14.8551 8.57249 14.3976L5.05499 13.8426C4.04249 13.6851 3.26249 13.4151 2.69249 13.0101C1.60499 12.2526 1.28999 11.0076 1.58999 9.0876L2.14499 5.57011C2.60999 2.63761 3.96749 1.64761 6.89999 2.10511L10.4175 2.66011C12.7725 3.02761 13.875 3.98761 13.9725 5.86261Z" stroke="currentColor" stroke-linecap="round" stroke-linejoin="round"/>
<path d="M15.3749 10.6023L14.2499 13.9848C13.3124 16.8048 11.8124 17.5548 8.99238 16.6173L5.60988 15.4923C3.90738 14.9298 2.96238 14.1498 2.69238 13.0098C3.26238 13.4148 4.04238 13.6848 5.05488 13.8423L8.57238 14.3973C11.5049 14.8548 12.8624 13.8648 13.3274 10.9323L13.8749 7.4148C13.9649 6.8373 14.0024 6.3198 13.9724 5.8623C15.7649 6.8148 16.1549 8.2548 15.3749 10.6023Z" stroke="currentColor" stroke-linecap="round" stroke-linejoin="round"/>
<path d="M6.18 7.235C6.90073 7.235 7.485 6.65073 7.485 5.93C7.485 5.20927 6.90073 4.625 6.18 4.625C5.45927 4.625 4.875 5.20927 4.875 5.93C4.875 6.65073 5.45927 7.235 6.18 7.235Z" stroke="currentColor" stroke-linecap="round" stroke-linejoin="round"/>
</svg>
