<svg width="20" height="21" viewBox="0 0 20 21" fill="none" xmlns="http://www.w3.org/2000/svg">
<g clip-path="url(#clip0_22_14577)">
<path d="M17.5 3.83333H14.9166C14.7232 2.89284 14.2115 2.04779 13.4677 1.4406C12.7239 0.833408 11.7935 0.501212 10.8333 0.5L9.16663 0.5C8.20646 0.501212 7.27606 0.833408 6.53225 1.4406C5.78844 2.04779 5.27671 2.89284 5.08329 3.83333H2.49996C2.27895 3.83333 2.06698 3.92113 1.9107 4.07741C1.75442 4.23369 1.66663 4.44565 1.66663 4.66667C1.66663 4.88768 1.75442 5.09964 1.9107 5.25592C2.06698 5.4122 2.27895 5.5 2.49996 5.5H3.33329V16.3333C3.33462 17.438 3.77403 18.497 4.55514 19.2782C5.33626 20.0593 6.3953 20.4987 7.49996 20.5H12.5C13.6046 20.4987 14.6637 20.0593 15.4448 19.2782C16.2259 18.497 16.6653 17.438 16.6666 16.3333V5.5H17.5C17.721 5.5 17.9329 5.4122 18.0892 5.25592C18.2455 5.09964 18.3333 4.88768 18.3333 4.66667C18.3333 4.44565 18.2455 4.23369 18.0892 4.07741C17.9329 3.92113 17.721 3.83333 17.5 3.83333ZM9.16663 2.16667H10.8333C11.3502 2.1673 11.8542 2.32781 12.2763 2.6262C12.6984 2.92459 13.0178 3.34624 13.1908 3.83333H6.80913C6.98211 3.34624 7.30154 2.92459 7.72361 2.6262C8.14569 2.32781 8.64973 2.1673 9.16663 2.16667ZM15 16.3333C15 16.9964 14.7366 17.6323 14.2677 18.1011C13.7989 18.5699 13.163 18.8333 12.5 18.8333H7.49996C6.83692 18.8333 6.20103 18.5699 5.73219 18.1011C5.26335 17.6323 4.99996 16.9964 4.99996 16.3333V5.5H15V16.3333Z" fill="currentColor"/>
<path d="M8.33333 15.5C8.55435 15.5 8.76631 15.4122 8.92259 15.2559C9.07887 15.0996 9.16667 14.8877 9.16667 14.6666V9.66665C9.16667 9.44563 9.07887 9.23367 8.92259 9.07739C8.76631 8.92111 8.55435 8.83331 8.33333 8.83331C8.11232 8.83331 7.90036 8.92111 7.74408 9.07739C7.5878 9.23367 7.5 9.44563 7.5 9.66665V14.6666C7.5 14.8877 7.5878 15.0996 7.74408 15.2559C7.90036 15.4122 8.11232 15.5 8.33333 15.5Z" fill="currentColor"/>
<path d="M11.6667 15.5C11.8877 15.5 12.0997 15.4122 12.256 15.2559C12.4122 15.0996 12.5 14.8877 12.5 14.6666V9.66665C12.5 9.44563 12.4122 9.23367 12.256 9.07739C12.0997 8.92111 11.8877 8.83331 11.6667 8.83331C11.4457 8.83331 11.2337 8.92111 11.0775 9.07739C10.9212 9.23367 10.8334 9.44563 10.8334 9.66665V14.6666C10.8334 14.8877 10.9212 15.0996 11.0775 15.2559C11.2337 15.4122 11.4457 15.5 11.6667 15.5Z" fill="currentColor"/>
</g>
<defs>
<clipPath id="clip0_22_14577">
<rect width="20" height="20" fill="none" transform="translate(0 0.5)"/>
</clipPath>
</defs>
</svg>
