<svg width="20" height="20" viewBox="0 0 20 20" fill="none" xmlns="http://www.w3.org/2000/svg">
<g clip-path="url(#clip0_22_10127)">
<path d="M10 18.3333H4.16667C2.78833 18.3333 1.66667 17.2117 1.66667 15.8333V4.16667C1.66667 2.78833 2.78833 1.66667 4.16667 1.66667H7.92917C8.065 1.66667 8.2 1.67333 8.33333 1.68583V5.83333C8.33333 7.21167 9.455 8.33333 10.8333 8.33333H15.6775C15.935 8.33333 16.1783 8.21417 16.3358 8.01083C16.4933 7.8075 16.5483 7.5425 16.485 7.29333C16.2258 6.28 15.6983 5.3525 14.9575 4.6125L12.0542 1.70917C10.9525 0.6075 9.4875 0 7.92917 0H4.16667C1.86917 0 0 1.86917 0 4.16667V15.8333C0 18.1308 1.86917 20 4.16667 20H10C10.4608 20 10.8333 19.6275 10.8333 19.1667C10.8333 18.7058 10.4608 18.3333 10 18.3333ZM10 2.21583C10.3167 2.3975 10.61 2.6225 10.8758 2.8875L13.7792 5.79083C14.0408 6.0525 14.2658 6.3475 14.4492 6.66667H10.8333C10.3733 6.66667 10 6.29333 10 5.83333V2.21583ZM9.16667 15C9.16667 15.4608 8.79417 15.8333 8.33333 15.8333H4.16667C3.70583 15.8333 3.33333 15.4608 3.33333 15C3.33333 14.5392 3.70583 14.1667 4.16667 14.1667H8.33333C8.79417 14.1667 9.16667 14.5392 9.16667 15ZM9.16667 11.6667C9.16667 12.1275 8.79417 12.5 8.33333 12.5H4.16667C3.70583 12.5 3.33333 12.1275 3.33333 11.6667C3.33333 11.2058 3.70583 10.8333 4.16667 10.8333H8.33333C8.79417 10.8333 9.16667 11.2058 9.16667 11.6667ZM18.8583 10.2625L15.6792 9.20833C15.51 9.15167 15.3242 9.15167 15.155 9.20833L11.9758 10.2625C11.2933 10.4883 10.8342 11.1242 10.8342 11.8425V14.6125C10.8342 17.5875 13.93 19.365 14.8758 19.8375C14.8758 19.8375 15.1308 20.0117 15.4183 20.0117C15.7058 20.0117 15.9033 19.8817 15.9033 19.8817C16.8642 19.495 20.0008 17.9717 20.0008 14.6133V11.8433C20.0008 11.125 19.5417 10.4892 18.8592 10.2633L18.8583 10.2625ZM18.3333 14.6133C18.3333 16.7642 16.3142 17.8833 15.455 18.2625C14.6933 17.8542 12.5 16.5142 12.5 14.6133V11.845L15.4167 10.8783L18.3333 11.8433V14.6133Z" fill="currentColor"/>
</g>
<defs>
<clipPath id="clip0_22_10127">
<rect width="20" height="20" fill="none"/>
</clipPath>
</defs>
</svg>
