<svg width="18" height="19" viewBox="0 0 18 19" fill="none" xmlns="http://www.w3.org/2000/svg">
<path d="M16.2526 11.225L15.9526 14.975C15.8401 16.1225 15.7501 17 13.7176 17H4.28257C2.25007 17 2.16007 16.1225 2.04757 14.975L1.74757 11.225C1.68757 10.6025 1.88257 10.025 2.23507 9.5825C2.24257 9.575 2.24257 9.575 2.25007 9.5675C2.66257 9.065 3.28507 8.75 3.98257 8.75H14.0176C14.7151 8.75 15.3301 9.065 15.7351 9.5525C15.7426 9.56 15.7501 9.5675 15.7501 9.575C16.1176 10.0175 16.3201 10.595 16.2526 11.225Z" stroke="currentColor" stroke-miterlimit="10"/>
<path d="M2.625 9.07246V5.20996C2.625 2.65996 3.2625 2.02246 5.8125 2.02246H6.765C7.7175 2.02246 7.935 2.30746 8.295 2.78746L9.2475 4.06246C9.4875 4.37746 9.63 4.57246 10.2675 4.57246H12.18C14.73 4.57246 15.3675 5.20996 15.3675 7.75996V9.10246" stroke="currentColor" stroke-miterlimit="10" stroke-linecap="round" stroke-linejoin="round"/>
<path d="M7.07275 13.25H10.9278" stroke="currentColor" stroke-miterlimit="10" stroke-linecap="round" stroke-linejoin="round"/>
</svg>
