<svg width="21" height="21" viewBox="0 0 21 21" fill="none" xmlns="http://www.w3.org/2000/svg">
<g clip-path="url(#clip0_146_8682)">
<path d="M14.6259 10.5C16.5468 8.93134 17.848 6.73141 18.2976 4.2925C18.3661 3.82555 18.3333 3.34932 18.2013 2.89621C18.0692 2.44309 17.8412 2.02373 17.5326 1.66667C17.2191 1.30161 16.8306 1.00843 16.3936 0.807104C15.9565 0.605773 15.4812 0.501026 15.0001 0.5L6.6709 0.5C6.189 0.500262 5.71284 0.604646 5.27502 0.806008C4.8372 1.00737 4.44806 1.30095 4.13423 1.66667C3.82483 2.0244 3.59636 2.44475 3.46447 2.89896C3.33258 3.35318 3.30038 3.83052 3.37007 4.29833C3.81749 6.73542 5.11754 8.93377 7.03757 10.5C5.11751 12.0668 3.81774 14.2658 3.3709 16.7033C3.30135 17.1708 3.33354 17.6478 3.46528 18.1017C3.59702 18.5556 3.8252 18.9757 4.13423 19.3333C4.44806 19.699 4.8372 19.9926 5.27502 20.194C5.71284 20.3954 6.189 20.4997 6.6709 20.5H15.0001C15.4819 20.4996 15.958 20.3951 16.3958 20.1938C16.8336 19.9924 17.2228 19.6989 17.5367 19.3333C17.8459 18.9757 18.0742 18.5557 18.2063 18.1018C18.3383 17.6479 18.3708 17.1709 18.3017 16.7033C17.8501 14.2654 16.5474 12.067 14.6259 10.5ZM15.6901 17.6325C15.6139 17.7455 15.5111 17.8381 15.3908 17.9022C15.2705 17.9663 15.1364 17.9998 15.0001 18H6.66673C6.53031 18.0001 6.39596 17.9667 6.27547 17.9027C6.15498 17.8387 6.05203 17.7461 5.97568 17.6331C5.89932 17.52 5.85189 17.39 5.83754 17.2543C5.8232 17.1186 5.84238 16.9815 5.8934 16.855C6.75986 14.9899 8.0773 13.37 9.72673 12.1417L10.3101 11.6758C10.4575 11.5585 10.6404 11.4947 10.8288 11.4947C11.0172 11.4947 11.2001 11.5585 11.3476 11.6758L11.9226 12.135C13.5719 13.3677 14.8915 14.9884 15.7642 16.8533C15.8166 16.9794 15.8372 17.1163 15.8243 17.2522C15.8114 17.388 15.7653 17.5186 15.6901 17.6325ZM13.6242 16.3333H8.0409C8.78964 15.2323 9.70991 14.2583 10.7667 13.4483L10.8334 13.3933L10.8926 13.4392C11.949 14.255 12.8708 15.2316 13.6242 16.3333Z" fill="currentColor"/>
</g>
<defs>
<clipPath id="clip0_146_8682">
<rect width="20" height="20" fill="none" transform="translate(0.833496 0.5)"/>
</clipPath>
</defs>
</svg>
