<svg width="21" height="21" viewBox="0 0 21 21" fill="none" xmlns="http://www.w3.org/2000/svg">
<g clip-path="url(#clip0_146_8692)">
<path d="M10.5002 20.5C16.0231 20.5 20.5002 16.0229 20.5002 10.5C20.5002 4.97715 16.0231 0.5 10.5002 0.5C4.97739 0.5 0.500244 4.97715 0.500244 10.5C0.506221 16.0204 4.97985 20.494 10.5002 20.5ZM9.66692 5.5C9.66692 5.03977 10.04 4.66668 10.5002 4.66668C10.9605 4.66668 11.3336 5.03977 11.3336 5.5V12.1667C11.3336 12.6269 10.9605 13 10.5002 13C10.04 13 9.66692 12.6269 9.66692 12.1667V5.5ZM10.5002 15.5C10.9605 15.5 11.3336 15.8731 11.3336 16.3333C11.3336 16.7936 10.9605 17.1666 10.5002 17.1666C10.04 17.1666 9.66692 16.7936 9.66692 16.3333C9.66692 15.8731 10.04 15.5 10.5002 15.5Z" fill="currentColor"/>
</g>
<defs>
<clipPath id="clip0_146_8692">
<rect width="20" height="20" fill="none" transform="translate(0.500244 0.5)"/>
</clipPath>
</defs>
</svg>
