<svg width="20" height="20" viewBox="0 0 20 20" fill="none" xmlns="http://www.w3.org/2000/svg">
<path d="M16.1082 4.73335L10.8832 1.91668C10.3332 1.61668 9.66657 1.61668 9.11657 1.91668L3.89157 4.73335C3.50824 4.94168 3.2749 5.34168 3.2749 5.80001C3.2749 6.25001 3.50824 6.65835 3.89157 6.86668L9.11657 9.68335C9.39157 9.83335 9.6999 9.90835 9.9999 9.90835C10.2999 9.90835 10.6082 9.83335 10.8832 9.68335L16.1082 6.86668C16.4916 6.65835 16.7249 6.25835 16.7249 5.80001C16.7249 5.34168 16.4916 4.94168 16.1082 4.73335Z" fill="currentColor"/>
<path d="M8.25841 10.6583L3.39175 8.22501C3.01675 8.04168 2.58341 8.05834 2.23341 8.27501C1.87508 8.50001 1.66675 8.87501 1.66675 9.29168V13.8833C1.66675 14.675 2.10841 15.3917 2.81675 15.75L7.67508 18.1833C7.84175 18.2667 8.02508 18.3083 8.20842 18.3083C8.42508 18.3083 8.64175 18.25 8.83342 18.1333C9.19175 17.9167 9.40008 17.5333 9.40008 17.1167V12.525C9.40841 11.725 8.96675 11.0083 8.25841 10.6583Z" fill="currentColor"/>
<path d="M17.7668 8.275C17.4084 8.05833 16.9751 8.03333 16.6084 8.22499L11.7501 10.6583C11.0418 11.0167 10.6001 11.725 10.6001 12.525V17.1167C10.6001 17.5333 10.8084 17.9167 11.1668 18.1333C11.3584 18.25 11.5751 18.3083 11.7918 18.3083C11.9751 18.3083 12.1584 18.2667 12.3251 18.1833L17.1834 15.75C17.8918 15.3917 18.3334 14.6833 18.3334 13.8833V9.29166C18.3334 8.87499 18.1251 8.5 17.7668 8.275Z" fill="currentColor"/>
</svg>
