<svg width="18" height="19" viewBox="0 0 18 19" fill="none" xmlns="http://www.w3.org/2000/svg">
<path d="M9 9.5C11.0711 9.5 12.75 7.82107 12.75 5.75C12.75 3.67893 11.0711 2 9 2C6.92893 2 5.25 3.67893 5.25 5.75C5.25 7.82107 6.92893 9.5 9 9.5Z" stroke="currentColor" stroke-linecap="round" stroke-linejoin="round"/>
<path d="M14.4073 12.3048L11.7523 14.9598C11.6473 15.0648 11.5498 15.2598 11.5273 15.4023L11.3848 16.4148C11.3323 16.7823 11.5873 17.0373 11.9548 16.9848L12.9673 16.8423C13.1098 16.8198 13.3123 16.7223 13.4098 16.6173L16.0648 13.9623C16.5223 13.5048 16.7398 12.9723 16.0648 12.2973C15.3973 11.6298 14.8648 11.8473 14.4073 12.3048Z" stroke="currentColor" stroke-miterlimit="10" stroke-linecap="round" stroke-linejoin="round"/>
<path d="M14.0249 12.6875C14.2499 13.4975 14.8799 14.1275 15.6899 14.3525" stroke="currentColor" stroke-miterlimit="10" stroke-linecap="round" stroke-linejoin="round"/>
<path d="M2.55762 17C2.55762 14.0975 5.44514 11.75 9.00014 11.75C9.78014 11.75 10.5301 11.8625 11.2276 12.0725" stroke="currentColor" stroke-linecap="round" stroke-linejoin="round"/>
</svg>
