<svg width="20" height="20" viewBox="0 0 20 20" fill="none" xmlns="http://www.w3.org/2000/svg">
<g clip-path="url(#clip0_22_13952)">
<path d="M4.58334 9.16667C6.19167 9.16667 7.5 7.85833 7.5 6.25C7.5 4.64167 6.19167 3.33333 4.58334 3.33333C2.975 3.33333 1.66667 4.64167 1.66667 6.25C1.66667 7.85833 2.975 9.16667 4.58334 9.16667ZM4.58334 5C5.2725 5 5.83334 5.56083 5.83334 6.25C5.83334 6.93917 5.2725 7.5 4.58334 7.5C3.89417 7.5 3.33334 6.93917 3.33334 6.25C3.33334 5.56083 3.89417 5 4.58334 5ZM7.35917 11.9283C7.10167 12.3108 6.585 12.4133 6.2025 12.1567C5.72334 11.835 5.16334 11.6658 4.58334 11.6658C3.09417 11.6658 1.84834 12.78 1.68417 14.2575C1.63667 14.6833 1.27584 14.9992 0.85667 14.9992C0.82667 14.9992 0.795837 14.9975 0.76417 14.9942C0.30667 14.9433 -0.0224968 14.5308 0.0275032 14.0742C0.285003 11.7517 2.24334 9.99917 4.58334 9.99917C5.495 9.99917 6.375 10.2658 7.13084 10.7717C7.51334 11.0283 7.61584 11.5458 7.35917 11.9283ZM12.9167 5.83333C14.525 5.83333 15.8333 4.525 15.8333 2.91667C15.8333 1.30833 14.525 0 12.9167 0C11.3083 0 10 1.30833 10 2.91667C10 4.525 11.3083 5.83333 12.9167 5.83333ZM12.9167 1.66667C13.6058 1.66667 14.1667 2.2275 14.1667 2.91667C14.1667 3.60583 13.6058 4.16667 12.9167 4.16667C12.2275 4.16667 11.6667 3.60583 11.6667 2.91667C11.6667 2.2275 12.2275 1.66667 12.9167 1.66667ZM14.1667 8.33333C10.9508 8.33333 8.33334 10.9508 8.33334 14.1667C8.33334 17.3825 10.9508 20 14.1667 20C17.3825 20 20 17.3825 20 14.1667C20 10.9508 17.3825 8.33333 14.1667 8.33333ZM14.1667 18.3333C11.8692 18.3333 10 16.4642 10 14.1667C10 11.8692 11.8692 10 14.1667 10C16.4642 10 18.3333 11.8692 18.3333 14.1667C18.3333 16.4642 16.4642 18.3333 14.1667 18.3333ZM16.8517 13.1567C17.17 13.4883 17.1592 14.0158 16.8275 14.335L14.9833 16.105C14.6067 16.4767 14.1067 16.6642 13.6058 16.6642C13.105 16.6642 12.6033 16.4767 12.22 16.1025L11.2767 15.1783C10.9475 14.8558 10.9433 14.3283 11.265 14C11.5867 13.6708 12.1142 13.6658 12.4433 13.9883L13.3858 14.9117C13.5058 15.03 13.7017 15.0275 13.8208 14.91L15.6733 13.1317C16.0042 12.8142 16.5325 12.8233 16.8517 13.1558V13.1567Z" fill="currentColor"/>
</g>
<defs>
<clipPath id="clip0_22_13952">
<rect width="20" height="20" fill="none"/>
</clipPath>
</defs>
</svg>
